<?xml version="1.0" encoding="UTF-8"?>
<!DOCTYPE svg PUBLIC "-//W3C//DTD SVG 1.1//EN" "http://www.w3.org/Graphics/SVG/1.1/DTD/svg11.dtd">
<svg xmlns="http://www.w3.org/2000/svg" version="1.1" width="596px" height="588px" style="shape-rendering:geometricPrecision; text-rendering:geometricPrecision; image-rendering:optimizeQuality; fill-rule:evenodd; clip-rule:evenodd" xmlns:xlink="http://www.w3.org/1999/xlink">
<g><path style="opacity:1" fill="#fefffe" d="M -0.5,-0.5 C 198.167,-0.5 396.833,-0.5 595.5,-0.5C 595.5,195.5 595.5,391.5 595.5,587.5C 396.833,587.5 198.167,587.5 -0.5,587.5C -0.5,391.5 -0.5,195.5 -0.5,-0.5 Z"/></g>
<g><path style="opacity:1" fill="#00a2e8" d="M 225.5,202.5 C 278.5,202.5 331.5,202.5 384.5,202.5C 384.5,213.833 384.5,225.167 384.5,236.5C 344.5,236.5 304.5,236.5 264.5,236.5C 264.5,255.167 264.5,273.833 264.5,292.5C 299.833,292.5 335.167,292.5 370.5,292.5C 370.5,303.833 370.5,315.167 370.5,326.5C 335.167,326.5 299.833,326.5 264.5,326.5C 264.5,349.167 264.5,371.833 264.5,394.5C 304.5,394.5 344.5,394.5 384.5,394.5C 384.5,405.833 384.5,417.167 384.5,428.5C 331.5,428.5 278.5,428.5 225.5,428.5C 225.5,353.167 225.5,277.833 225.5,202.5 Z"/></g>
</svg>
